<?xml version="1.0" encoding="utf-8"?>
<!-- Generator: Adobe Illustrator 25.4.1, SVG Export Plug-In . SVG Version: 6.00 Build 0)  -->
<svg version="1.1" id="f29e1fff-76f6-45bd-a5b3-5f641e770f85"
	 xmlns="http://www.w3.org/2000/svg" xmlns:xlink="http://www.w3.org/1999/xlink" x="0px" y="0px" viewBox="0 0 800 800"
	 style="enable-background:new 0 0 800 800;" xml:space="preserve">
<style type="text/css">
	.st0{fill:#7972BC;}
</style>
<path class="st0" d="M252.8,392h6.3c121.7,0,243.3,0,364.9-0.1c5.1,0,7.3,1.8,8.9,6.3c4.1,11.6,3.9,24.2-0.4,35.7
	c-1.4,3.8-3.3,5.2-7.6,5.2C492,439,359,438.9,226,438.8c-5.1,0-7.6,1.8-10,6c-22.4,39.4-37.9,82.4-45.8,127.1
	c-0.9,5.1,1.2,5.3,5.2,5.3c143-0.1,285.9-0.1,428.9-0.1c6.4,0,12.6,0.9,18.2,4.3c9.1,5.6,14.1,13.8,14.2,24.4
	c0.2,40.1,0.3,80.3,0.1,120.5c-0.1,16.4-13.2,29-29.5,29c-16.6,0-29.2-12.6-29.3-29.6c-0.2-27.7,0-55.3-0.1-83c0-7.7,1-6.7-6.5-6.7
	c-143.8,0-287.6,0-431.4,0c-11.2,0-20.6-2.9-27.6-12.1c-5.4-7.1-6-15.3-5.2-23.8c7-76.8,32.2-147.2,75.8-210.9
	c41.6-60.6,95.1-108.5,158.5-145.4c58.8-34.2,122-56.1,188.8-67.6c14.4-2.5,29-4.2,43.5-5.9c3.5-0.4,4.3-1.6,4.2-4.9
	c-0.1-28.5-0.1-57,0-85.5c0-13.6,7.8-24.7,19.9-28.8c18.7-6.4,38.5,7,38.7,27c0.4,39.8,0.3,79.6,0,119.5
	c-0.1,15.8-12.6,27.7-28.4,28.5c-88,4.5-171,26.5-247,72.2c-39.7,23.8-75.2,53.9-105.1,89.2C255.3,388.7,254.4,389.9,252.8,392z"/>
</svg>
